<?xml version="1.0" standalone="no"?>
<!DOCTYPE svg PUBLIC "-//W3C//DTD SVG 20010904//EN"
 "http://www.w3.org/TR/2001/REC-SVG-20010904/DTD/svg10.dtd">
<svg version="1.0" xmlns="http://www.w3.org/2000/svg"
 width="700.000000pt" height="700.000000pt" viewBox="0 0 700.000000 700.000000"
 preserveAspectRatio="xMidYMid meet">
<metadata>
Created by potrace 1.14, written by Peter Selinger 2001-2017
</metadata>
<g transform="translate(0.000000,700.000000) scale(0.100000,-0.100000)"
fill="#000000" stroke="none">
<path d="M1762 6090 c-115 -30 -294 -117 -404 -197 -28 -20 -87 -46 -145 -65
-199 -62 -364 -167 -544 -347 -236 -236 -405 -520 -529 -891 -23 -68 -67 -233
-75 -280 -3 -19 -10 -51 -15 -70 -5 -20 -19 -103 -29 -185 -18 -132 -20 -192
-16 -495 4 -354 5 -380 15 -380 3 0 17 19 31 43 60 99 175 226 276 305 58 45
198 117 263 135 273 76 533 -7 710 -226 100 -124 171 -310 171 -449 l0 -67 87
64 c101 75 264 162 372 199 314 107 623 70 889 -109 l69 -47 144 97 c79 54
152 105 162 114 18 15 18 15 10 -1 -5 -9 -27 -36 -49 -60 -86 -93 -283 -324
-295 -348 -9 -16 -14 -65 -16 -138 -1 -96 -4 -118 -21 -140 -38 -51 -95 -80
-191 -97 -18 -3 -63 -17 -100 -31 -177 -67 -234 -139 -186 -240 19 -40 34 -36
34 9 0 49 21 80 70 104 60 29 63 29 44 -8 -20 -40 -20 -88 0 -128 20 -37 36
-40 37 -6 2 29 2 32 16 65 13 29 60 76 69 68 3 -4 8 -29 10 -58 4 -48 27 -100
44 -100 4 0 14 24 20 53 17 72 59 155 90 177 49 35 179 90 213 90 43 0 84 -38
93 -88 l7 -35 18 34 c10 19 18 49 19 67 0 35 -24 64 -100 121 -31 23 -32 26
-29 95 1 40 9 82 17 96 18 30 62 69 79 70 7 0 25 -28 42 -62 54 -116 57 -240
16 -623 -3 -22 -8 -122 -11 -222 -10 -270 16 -398 117 -572 54 -93 166 -211
267 -280 94 -64 264 -131 375 -147 329 -50 656 104 789 371 66 132 60 332 -15
470 l-16 30 -1 -31 c-1 -91 -64 -199 -174 -299 l-68 -62 48 3 c57 3 129 27
157 52 19 16 19 16 12 -8 -7 -25 -52 -113 -70 -139 -52 -75 -158 -146 -255
-171 -162 -43 -447 25 -569 136 -58 52 -119 162 -137 249 -15 70 -19 113 -19
215 0 202 30 325 127 525 53 110 115 297 133 400 13 75 16 90 20 93 2 3 30
-18 62 -44 31 -27 66 -56 76 -64 58 -45 69 -58 77 -95 15 -63 12 -131 -6 -149
-8 -9 -35 -30 -59 -46 -62 -42 -73 -88 -37 -155 14 -26 16 -27 20 -10 11 66
37 92 100 100 24 3 56 -8 123 -42 108 -54 136 -87 169 -203 22 -77 24 -80 42
-64 18 17 33 75 31 122 0 12 5 22 12 22 21 0 63 -50 71 -83 4 -18 9 -35 10
-39 1 -5 2 -16 3 -25 1 -16 3 -15 21 3 13 12 23 39 27 71 5 43 2 56 -16 82
-27 37 -24 38 43 6 55 -26 72 -53 78 -130 l3 -29 19 29 c25 37 29 102 9 136
-32 54 -174 127 -296 150 -65 13 -117 37 -155 72 -42 38 -51 67 -47 152 4 108
-12 152 -82 233 -32 37 -68 78 -79 92 -12 14 -41 47 -64 74 l-42 49 24 19 c68
53 151 110 209 142 58 32 181 83 219 91 8 2 37 8 63 14 231 53 488 15 740
-110 80 -40 237 -140 258 -165 25 -30 34 -14 35 65 3 195 133 438 296 554 83
59 131 82 219 107 97 27 283 23 375 -8 184 -61 341 -183 475 -367 32 -44 65
-89 73 -100 14 -19 15 -18 16 15 1 19 4 44 6 55 9 36 12 548 3 625 -4 41 -11
100 -14 130 -9 78 -18 136 -41 250 -75 370 -220 712 -417 985 -28 39 -56 75
-61 81 -6 7 -38 43 -71 80 -182 210 -401 353 -651 427 -28 8 -88 39 -135 69
-151 97 -297 163 -422 192 l-29 7 30 -38 c77 -97 98 -179 58 -217 -13 -12 -46
-27 -72 -34 -102 -27 -152 -82 -139 -150 9 -47 30 -89 103 -198 80 -121 132
-214 170 -306 123 -296 93 -588 -90 -857 -127 -187 -265 -286 -473 -340 -84
-21 -278 -29 -371 -16 -140 22 -306 67 -439 121 -16 6 -18 5 -9 -7 65 -83 112
-427 84 -614 l-7 -50 -2 50 c-2 28 -4 59 -6 70 -1 11 -5 41 -8 66 -14 108 -64
255 -174 514 -115 270 -133 345 -129 546 2 75 5 140 8 145 4 5 9 27 12 48 9
53 12 54 21 9 17 -93 62 -136 185 -174 106 -33 134 -54 183 -139 81 -140 206
-210 246 -138 16 28 9 50 -11 30 -8 -8 -19 -4 -44 15 -31 23 -33 27 -19 46 8
12 15 30 15 40 0 18 -1 17 -26 -2 -14 -11 -31 -18 -37 -15 -7 2 -27 32 -44 67
-34 65 -55 91 -141 170 -35 32 -52 55 -52 71 l0 24 53 -19 c28 -11 63 -22 77
-24 63 -9 163 -36 205 -56 52 -25 64 -53 42 -99 -24 -47 25 -33 71 22 54 64
120 68 87 5 -16 -31 -9 -34 23 -11 44 31 71 136 46 185 -15 30 -48 45 -119 54
-27 4 -65 16 -83 27 -36 22 -65 69 -56 92 7 18 -13 39 -108 109 -117 88 -194
125 -293 141 -22 4 -53 9 -70 12 -170 28 -268 59 -343 111 -66 45 -104 92
-147 185 l-34 73 5 -75 c8 -126 25 -212 56 -287 27 -66 28 -74 15 -100 -46
-89 -96 -316 -112 -513 -3 -36 -10 -101 -16 -145 -6 -44 -13 -89 -14 -100 -15
-113 -74 -258 -130 -317 -81 -86 -396 -167 -643 -166 -316 1 -528 113 -695
365 -106 160 -155 307 -159 473 -5 213 58 395 229 662 116 180 133 224 109
283 -16 37 -58 65 -136 90 -30 10 -63 24 -72 33 -37 32 -14 125 51 206 28 35
36 47 29 45 -2 0 -36 -9 -76 -19z m2391 -1104 c30 -22 35 -41 11 -50 -29 -11
-50 -6 -72 17 -18 19 -52 85 -52 102 0 6 67 -35 113 -69z"/>
<path d="M3544 5553 c17 -48 76 -144 111 -179 26 -26 73 -39 174 -49 60 -5
129 -18 176 -32 18 -5 18 -3 -4 21 -31 33 -102 66 -211 96 -117 33 -153 56
-239 160 l-21 25 14 -42z"/>
</g>
</svg>
